<!--?xml version="1.0" standalone="no"?-->
              <svg id="sw-js-blob-svg" viewBox="0 0 100 100" xmlns="http://www.w3.org/2000/svg" version="1.1">
                    <defs> 
                        <linearGradient id="sw-gradient" x1="0" x2="1" y1="1" y2="0">
                            <stop id="stop1" stop-color="rgba(29, 33, 111, 1)" offset="0%"></stop>
                            <stop id="stop2" stop-color="rgba(80, 100, 198, 1)" offset="100%"></stop>
                        </linearGradient>
                    </defs>
                <path fill="url(#sw-gradient)" d="M21.8,-22.6C28.6,-20.2,34.9,-13.7,36.8,-6C38.7,1.7,36.3,10.6,31,16C25.6,21.4,17.4,23.1,10.6,22.8C3.9,22.5,-1.2,20,-7,18.3C-12.8,16.6,-19.2,15.7,-23.3,11.8C-27.5,8,-29.5,1.2,-30.1,-7C-30.7,-15.3,-30,-25.1,-24.7,-27.8C-19.5,-30.5,-9.7,-26.2,-1.1,-24.8C7.5,-23.4,14.9,-25.1,21.8,-22.6Z" width="100%" height="100%" transform="translate(50 50)" stroke-width="0" style="transition: all 0.3s ease 0s;" stroke="url(#sw-gradient)"></path>
              </svg>