<!--?xml version="1.0" standalone="no"?-->
              <svg id="sw-js-blob-svg" viewBox="0 0 100 100" xmlns="http://www.w3.org/2000/svg" version="1.1">
                    <defs> 
                        <linearGradient id="sw-gradient" x1="0" x2="1" y1="1" y2="0">
                            <stop id="stop1" stop-color="rgba(29, 33, 111, 1)" offset="0%"></stop>
                            <stop id="stop2" stop-color="rgba(80, 100, 198, 1)" offset="100%"></stop>
                        </linearGradient>
                    </defs>
                <path fill="url(#sw-gradient)" d="M11.8,-15.1C17.4,-9.4,25.6,-7.7,28.2,-3.4C30.8,0.8,27.9,7.6,24.4,14.5C21,21.4,16.9,28.4,11.7,29C6.4,29.6,-0.1,23.8,-6.9,20.6C-13.8,17.4,-21.1,16.9,-25.5,13C-29.9,9,-31.4,1.6,-31.5,-6.9C-31.6,-15.4,-30.4,-25.1,-24.9,-30.8C-19.4,-36.5,-9.7,-38.3,-3.3,-34.4C3.1,-30.4,6.2,-20.8,11.8,-15.1Z" width="100%" height="100%" transform="translate(50 50)" stroke-width="0" style="transition: all 0.3s ease 0s;" stroke="url(#sw-gradient)"></path>
              </svg>